<?xml version="1.0" encoding="utf-8"?>
<!-- Generator: Adobe Illustrator 24.1.1, SVG Export Plug-In . SVG Version: 6.00 Build 0)  -->
<svg version="1.1" id="Layer_1" xmlns="http://www.w3.org/2000/svg" xmlns:xlink="http://www.w3.org/1999/xlink" x="0px" y="0px"
	 viewBox="0 0 214.1477661 79" style="enable-background:new 0 0 214.1477661 79;" xml:space="preserve">
<style type="text/css">
	.st0{fill:#414042;}
	.st1{fill:none;}
	.st2{clip-path:url(#SVGID_2_);fill:#010101;}
	.st3{fill:#010101;}
	.st4{clip-path:url(#SVGID_4_);fill:#010101;}
	.st5{fill-rule:evenodd;clip-rule:evenodd;fill:#010101;}
</style>
<g>
	<g>
		<path class="st0" d="M29.4006042,71.9000015l0.9000015-0.0999985v-6l-0.9000015-0.2000046l0.0999985-0.3000031h1.2999992
			h1.9000015c1.2000008,0,2.2000008,0.5999985,2.2000008,1.6999969c0,1.3000031-1.2000008,1.9000015-2.5,2.1999969h-1.0999985v2.5
			l1.2000008,0.0999985v0.3000031h-1.5999985h-1.4000015L29.4006042,71.9000015z M32.2006035,68.6999969
			c0.9000015,0,1.5999985-0.5999985,1.5999985-1.5999985c0-0.8000031-0.5-1.5-1.5-1.5l-0.9000015,0.0999985v3H32.2006035z"/>
		<path class="st0" d="M35.2006035,71.9000015l0.7999992-0.0999985l2.4000015-6.4000015l0.5999985-0.1999969l2.5999985,6.5999985
			l0.7999992,0.0999985l-0.0999985,0.3000031h-1.4000015h-1.2999992v-0.3000031l0.7999992-0.0999985L39.7005997,70h-2.4000015
			l-0.5999985,1.8000031l0.9000015,0.0999985l-0.0999985,0.3000031H36.300602h-1.0999985V71.9000015z M39.5006027,69.4000015
			l-0.9000015-2.5999985l-0.0999985-0.5l-1.0999985,3.0999985H39.5006027z"/>
		<path class="st0" d="M49.2006035,71.9000015v0.3000031h-0.7999992h-0.7000008l-2.0999985-3.0999985L45.4006042,69h-0.7000008
			v2.6999969l0.7999992,0.0999985v0.3000031h-1.2999992H42.800602l-0.0999985-0.3000031l0.9000015-0.0999985v-6
			l-0.9000015-0.0999985l0.0999985-0.3000031h1.4000015h1.7999992c1.2999992,0,2.2999992,0.5,2.2999992,1.6999969
			c0,1.0999985-1,1.6999969-2,1.9000015l0.7000008,0.4000015l1.7000008,2.4000015L49.2006035,71.9000015z M44.7006035,68.5999985
			h0.7000008c1,0,1.7000008-0.5999985,1.7000008-1.5s-0.5999985-1.4000015-1.4000015-1.4000015l-1,0.0999985V68.5999985z"/>
		<path class="st0" d="M49.600605,71.9000015l0.9000015-0.0999985v-6l-0.9000015-0.0999985l0.0999985-0.3000031h1.4000015h3.8999977
			l0.0999985,1.8000031h-0.3000031l-0.5999985-1.3000031h-2.5999985V68.5h1.4000015l0.4000015-1h0.3000031l-0.0999985,1.1999969
			L53.7006073,70h-0.3000031l-0.4000015-1h-1.4000015v2.8000031l1.2000008,0.0999985v0.3000031h-1.5999985H49.800602
			L49.600605,71.9000015z"/>
		<path class="st0" d="M56.3006058,69.8000031v-4l-0.9000015-0.2000046v-0.3000031h1.4000015h1.4000015v0.3000031
			l-0.8000031,0.2000046V70c0,1.1999969,0.5,1.9000015,1.5999985,1.9000015c1,0,1.5999985-0.6999969,1.5999985-2v-4.0999985
			l-0.9000015-0.0999985v-0.3000031h1.3000031h1.1999969v0.3000031l-0.7999954,0.0999985v4c0,1.3000031-0.5,2.0999985-2.5,2.5999985
			C57.0006027,72.4000015,56.3006058,71.3000031,56.3006058,69.8000031z"/>
		<path class="st0" d="M62.9006042,71.9000015l0.8000031-0.0999985v-6l-0.8000031-0.0999985v-0.3000031h1h1.0999985
			l2.0999985,5.1999969l0.0999985,0.5999985l2.3000031-5.8000031h1.0999985h0.9000015l0.0999985,0.3000031l-0.8000031,0.0999985v6
			l0.8000031,0.0999985v0.3000031h-1.1999969h-1.4000015v-0.3000031l0.9000015-0.0999985v-4.5l0.0999985-1.1999969l-2.5,6.0999985
			h-0.5999985l-2-5l-0.4000015-1.0999985v5.6999969l0.9000015,0.0999985l-0.0999985,0.3000031h-1.0999985h-1.0999985
			L62.9006042,71.9000015z"/>
		<path class="st0" d="M72.5006027,71.6999969l-0.1999969-1.3000031h0.6999969l0.3000031,0.8000031
			c0.3000031,0.4000015,0.8000031,0.5999985,1.4000015,0.5999985c0.8000031,0,1.3000031-0.5,1.3000031-1.3000031
			c0-0.6999969-0.4000015-1.0999985-1-1.3000031l-1.1999969-0.5c-0.6999969-0.3000031-1.3000031-0.8000031-1.3000031-1.5999985
			c0-1.0999985,1-1.6999969,2.4000015-2c0.5999985,0,1.3000031,0.1999969,1.8000031,0.5999985v1.3000031h-0.5l-0.3000031-0.9000015
			c-0.3000031-0.3000031-0.5999985-0.5-1.1999969-0.5c-0.8000031,0-1.1999969,0.4000015-1.1999969,1.0999985
			c0,0.5,0.4000015,0.9000015,0.9000015,1.0999985l1.0999985,0.5c0.8000031,0.3000031,1.4000015,0.8000031,1.4000015,1.8000031
			c0,0.9000015-0.5999985,1.8000031-2.5,2.1999969C73.6006012,72.4000015,73.0006027,72.0999985,72.5006027,71.6999969z"/>
		<path class="st0" d="M127.3005981,71.9000015l0.8999939-0.0999985v-6l-0.8999939-0.0999985v-0.3000031h1.3000031h2
			c2,0,3.3000031,1.1999969,3.3000031,3.3000031c0,2.0999985-1.1000061,3.4000015-3.3999939,3.6999969h-1.8999939h-1.3000031
			L127.3005981,71.9000015z M132.8005981,68.6999969c0-1.6999969-0.8999939-3-2.6000061-3h-1v5.9000015l1.1999969,0.0999985
			C131.8005981,71.8000031,132.8005981,70.5,132.8005981,68.6999969z"/>
		<path class="st0" d="M135.4006042,67c0-0.1999969-0.1000061-0.4000015-0.3000031-0.5s-0.3000031-0.0999985-0.5-0.0999985
			c0-0.0999985,0-0.3000031,0.1000061-0.4000015s0.1999969-0.1999969,0.3999939-0.1999969s0.3999939,0.0999985,0.5,0.1999969
			s0.1999969,0.3000031,0.1999969,0.5c0,0.3000031-0.1000061,0.6999969-0.3999939,0.9000015
			c-0.1999969,0.3000031-0.5,0.5-0.8999939,0.6999969L134.4006042,68C135.1006012,67.6999969,135.4006042,67.4000015,135.4006042,67
			z"/>
		<path class="st0" d="M136.4006042,71.9000015l0.8000031-0.0999985l2.3999939-6.4000015l0.6000061-0.1999969l2.6000061,6.5999985
			l0.8000031,0.0999985l-0.1000061,0.3000031h-1.3999939h-1.3000031v-0.3000031l0.8000031-0.0999985L140.9006195,70h-2.3999939
			l-0.6000061,1.8000031l0.8999939,0.0999985l-0.1000061,0.3000031h-1.1999969h-1.1000061V71.9000015z M140.8005981,69.4000015
			l-0.8999939-2.5999985l-0.1000061-0.5l-1.1000061,3.0999985H140.8005981z"/>
		<path class="st0" d="M144.8005981,69.8000031v-4l-0.8999939-0.0999985v-0.3000031h1.3999939h1.3999939v0.3000031
			l-0.8000031,0.0999985V70c0,1.1999969,0.5,1.9000015,1.6000061,1.9000015c1,0,1.6000061-0.6999969,1.6000061-2v-4.0999985
			l-0.8999939-0.0999985v-0.3000031h1.3000031h1.1999969l0.1000061,0.3000031l-0.8000031,0.0999985v4
			c0,1.3000031-0.5,2.0999985-2.5,2.5999985C145.5006104,72.4000015,144.8005981,71.3000031,144.8005981,69.8000031z"/>
		<path class="st0" d="M152.2006073,71.9000015l1.1999969-0.0999985v-6h-1.5l-0.5,1.3000031h-0.3999939v-1.6999969h2.8000031
			h2.8000031v1.6999969h-0.2000122l-0.5-1.3000031h-1.5v6l1.1000061,0.0999985l-0.1000061,0.3000031h-1.6000061h-1.6999969
			L152.2006073,71.9000015z"/>
		<path class="st0" d="M157.3005981,71.9000015l0.8999939-0.0999985v-6l-0.8999939-0.0999985v-0.3000031h1.3999939h3.8999939
			l0.1000061,1.8000031h-0.2999878l-0.6000061-1.3000031h-2.6000061V68.5h1.3999939l0.3999939-1h0.3000031l-0.1000061,1.1999969
			L161.3005829,70h-0.3000031l-0.3999939-1h-1.3999939v3h2.6999969l0.6999969-1.3000031h0.3999939L162.7005768,72.5h-3.8999939
			h-1.3999939L157.3005981,71.9000015z"/>
		<path class="st0" d="M164.4006042,69.8000031v-4l-0.8999939-0.0999985v-0.3000031h1.3999939h1.3999939l0.1000061,0.3000031
			l-0.8000031,0.0999985V70c0,1.1999969,0.5,1.9000015,1.6000061,1.9000015c1,0,1.6000061-0.6999969,1.6000061-2v-4.0999985
			l-0.8999939-0.0999985v-0.3000031h1.3000031h1.1999969l0.1000061,0.3000031l-0.8000031,0.0999985v4
			c0,1.3000031-0.5,2.0999985-2.5,2.5999985C165.1006012,72.4000015,164.4006042,71.3000031,164.4006042,69.8000031z"/>
		<path class="st0" d="M177.2006073,71.9000015v0.3000031h-0.8000031h-0.6999969l-2.1000061-3.0999985l-0.1000061-0.0999985
			h-0.6999969v2.6999969l0.8000031,0.0999985l-0.1000061,0.3000031h-1.3000031h-1.3999939v-0.3000031l0.8999939-0.0999985v-6
			l-0.8999939-0.0999985v-0.3000031h1.3999939h1.8000031c1.3000031,0,2.3000031,0.5,2.3000031,1.6999969
			c0,1.0999985-1,1.6999969-2,1.9000015l0.6999969,0.4000015l1.6999969,2.4000015L177.2006073,71.9000015z M172.8005981,68.5999985
			h0.6999969c1,0,1.6999969-0.5999985,1.6999969-1.5s-0.6000061-1.4000015-1.3999939-1.4000015l-1,0.0999985V68.5999985z"/>
	</g>
	<g>
		<path class="st1" d="M88.6006012,23.4000015c0-7.7000008,5.9000015-13.8999996,13.1999969-13.8999996
			c7.3000031,0,13.1999969,6.1999989,13.1999969,13.8999996s-5.9000015,13.9000015-13.1999969,13.9000015
			C94.6006012,37.2999992,88.6006012,31.0999985,88.6006012,23.4000015z"/>
		<g>
			<g>
				<defs>
					<ellipse id="SVGID_1_" cx="101.8005981" cy="23.4000015" rx="13.1999969" ry="13.9000006"/>
				</defs>
				<clipPath id="SVGID_2_">
					<use xlink:href="#SVGID_1_"  style="overflow:visible;"/>
				</clipPath>
				<path class="st2" d="M109.4006042,9.2999992C105.1006012,15,109.0006027,18.6999989,111.2006073,23.5999985
					C113.1006088,27.6999969,112.3006058,35.2999992,107.9006042,39l-1.3000031-1.7000008
					c3.5-3,4.1999969-9.3999977,2.6999969-12.7999992c-1.0999985-2.2999992-2.5999985-4.2999992-3.3000031-6.7999992
					c-0.9000015-2.8999996-0.9000015-6.2000008,1.8000031-9.7999992L109.4006042,9.2999992z M104.3006058,9.2999992
					C100.0006027,15,103.9006042,18.6999989,106.1006088,23.5999985C108.0006104,27.6999969,107.2006073,35.2999992,102.8006058,39
					l-1.3000031-1.7000008c3.5-3,4.1999969-9.3999977,2.6999969-12.7999992
					c-1.0999985-2.2999992-2.5999985-4.2999992-3.3000031-6.7999992c-0.9000015-2.8999996-0.9000015-6.2000008,1.8000031-9.7999992
					L104.3006058,9.2999992z M88.9006042,9.2999992C84.6006012,15,88.5006027,18.6999989,90.7006073,23.5999985
					C92.6006088,27.6999969,91.8006058,35.2999992,87.4006042,39l-1.3000031-1.7000008
					c3.5-3,4.1999969-9.3999977,2.6999969-12.7999992c-1.0999985-2.2999992-2.5999985-4.2999992-3.3000031-6.7999992
					C84.6005936,14.8000011,84.6005936,11.5,87.3005981,7.9000015L88.9006042,9.2999992z M99.2006073,9.2999992
					C94.9006042,15,98.8006058,18.6999989,101.0006104,23.5999985C102.9006119,27.6999969,102.1006088,35.2999992,97.7006073,39
					l-1.3000031-1.7000008c3.5-3,4.1999969-9.3999977,2.6999969-12.7999992
					c-1.0999985-2.2999992-2.5999985-4.2999992-3.3000031-6.7999992C94.9005966,14.8000011,94.9005966,11.5,97.6006012,7.9000015
					L99.2006073,9.2999992z M94.0006027,9.2999992C89.7005997,15,93.6006012,18.6999989,95.8006058,23.5999985
					C97.7006073,27.6999969,96.9006042,35.2999992,92.5006027,39l-1.3000031-1.7000008
					c3.5-3,4.1999969-9.3999977,2.6999969-12.7999992c-1.0999985-2.2999992-2.5999985-4.2999992-3.3000031-6.7999992
					C89.700592,14.8000011,89.700592,11.5,92.4005966,7.9000015L94.0006027,9.2999992z M114.5006027,9.2999992
					C110.2005997,15,114.1006012,18.6999989,116.3006058,23.5999985C118.2006073,27.6999969,117.4006042,35.2999992,113.0006027,39
					l-1.3000031-1.7000008c3.5-3,4.1999969-9.3999977,2.6999969-12.7999992
					c-1.0999985-2.2999992-2.5999985-4.2999992-3.3000031-6.7999992C110.200592,14.8000011,110.200592,11.5,112.9005966,7.9000015
					L114.5006027,9.2999992z"/>
			</g>
		</g>
		<rect x="98.7006073" class="st3" width="6.4000015" height="6.7000008"/>
		<polygon class="st1" points="86.7006073,79 101.9006042,51.4000015 117.0006027,79 		"/>
		<g>
			<g>
				<defs>
					<polygon id="SVGID_3_" points="86.7006073,79 101.9006042,51.4000015 117.0006027,79 					"/>
				</defs>
				<clipPath id="SVGID_4_">
					<use xlink:href="#SVGID_3_"  style="overflow:visible;"/>
				</clipPath>
				<path class="st4" d="M131.7006073,62.1999969l-21,38.0999985l-1.8000031-1.0999985l21-38.0999985L131.7006073,62.1999969z
					 M106.6006012,46.9000015L85.6006012,85l-1.8000031-1.0999985l21-38.0999985L106.6006012,46.9000015z M110.7006073,49.5
					l-21,38.0999985L87.9006042,86.5l21-38.0999985L110.7006073,49.5z M114.9006042,52l-21,38.0999985L92.1006012,89l21-38.0999985
					L114.9006042,52z M119.1006012,54.5l-21,38.0999985L96.3005981,91.5l21-38.0999985L119.1006012,54.5z M123.3005981,57.0999985
					l-21,38.0999985l-1.8000031-1.0999985l21-38.0999985L123.3005981,57.0999985z M127.5006104,59.5999985l-21,38.0999985
					l-1.8000031-1.0999985l21-38.0999985L127.5006104,59.5999985z M102.4006042,44.4000015l-21,38.0999985l-1.8000031-1.0999985
					l21-38.0999985L102.4006042,44.4000015z"/>
			</g>
		</g>
		<rect x="98.7006073" y="43.0999985" class="st3" width="6.4000015" height="6.7000008"/>
	</g>
	<path class="st5" d="M4.700604,44v-6.4000015h4.7000003c2.3999996,0,3.7999992,1.0999985,3.7999992,3.2000008v0.0999985
		c0,1.9000015-1.5,3.2000008-3.7999992,3.2000008H4.700604V44z M1.5006042,53.5999985H4.700604v-6.7000008h3.9999995l4.5,6.7000008
		h3.7999992l-4.8999996-7.2999992C14.7006035,45.5,16.5006027,43.5999985,16.5006027,40.5l0,0
		c0-1.7000008-0.5-3.0999985-1.5-4.0999985C13.800602,35.2000008,12.0006027,34.5,9.7006035,34.5H1.6006026v19.0999985H1.5006042z"
		/>
	<path class="st5" d="M29.100605,50.9000015c-3.5999985,0-6.2000008-3.0999985-6.2000008-6.7999992v-0.0999985
		c0-3.7000008,2.5-6.7999992,6.2000008-6.7999992c3.5999985,0,6.2000008,3.0999985,6.2000008,6.7999992v0.0999985
		C35.3006058,47.7999992,32.8006058,50.9000015,29.100605,50.9000015z M29.100605,54c5.5999985,0,9.6000023-4.5,9.6000023-9.9000015
		V44c0-5.4000015-3.9000015-9.9000015-9.5-9.9000015s-9.6000004,4.5-9.6000004,9.9000015v0.0999985
		C19.600605,49.5,23.5006027,54,29.100605,54z"/>
	<path class="st5" d="M48.8006058,53.9000015c3.7999992,0,6.5-2.0999985,6.5-5.7000008v-0.0999985
		c0-3.2000008-2-4.5999985-5.9000015-5.5999985c-3.5-0.9000015-4.2999992-1.5-4.2999992-3V39.5
		c0-1.2999992,1.0999985-2.2999992,3-2.2999992c1.7000008,0,3.2999992,0.7000008,5,2l1.7000008-2.5
		c-1.9000015-1.5999985-4-2.4000015-6.5999985-2.4000015c-3.5999985,0-6.2000008,2.2999992-6.2000008,5.5999985v0.0999985
		c0,3.5,2.2000008,4.7000008,6.0999985,5.7000008c3.4000015,0.7999992,4.0999985,1.5999985,4.0999985,2.9000015V48.5
		c0,1.4000015-1.2999992,2.4000015-3.2000008,2.4000015c-2.2999992,0-4-0.9000015-5.7999992-2.5l-1.9000015,2.4000015
		C43.4006042,52.9000015,46.0006027,53.9000015,48.8006058,53.9000015z"/>
	<path class="st5" d="M63.5006027,46l3.0999985-7.7000008L69.8005981,46H63.5006027z M57.2006073,53.5999985h3.1999969
		L62.3006058,49h8.5999985l1.9000015,4.5999985h3.4000015l-8-19.2999992h-3L57.2006073,53.5999985z"/>
	<polygon class="st5" points="126.2006073,53.5999985 129.3005981,53.5999985 129.3005981,40 135.0006104,48.9000015 
		135.1006012,48.9000015 140.9006042,39.9000015 140.9006042,53.5999985 144.1006012,53.5999985 144.1006012,34.5 140.7006073,34.5 
		135.1006012,43.5999985 129.6006012,34.5 126.2006073,34.5 	"/>
	<path class="st5" d="M156.3005981,54c4.8000031,0,7.8999939-2.9000015,7.8999939-8.5999985V34.5h-3.1999969v11
		c0,3.5-1.6999969,5.2999992-4.6000061,5.2999992c-2.8999939,0-4.6000061-1.9000015-4.6000061-5.5V34.5h-3.1999969v11
		C148.5006104,51.0999985,151.6006012,54,156.3005981,54z"/>
	<polygon class="st5" points="168.6006012,53.5999985 171.7006073,53.5999985 171.7006073,40 181.8005981,53.5999985 
		184.5006104,53.5999985 184.5006104,34.5 181.3005981,34.5 181.3005981,47.7000008 171.6006012,34.5 168.6006012,34.5 	"/>
	<path class="st5" d="M192.4006042,50.5999985v-13h3.6000061c3.8000031,0,6.3000031,2.7999992,6.3000031,6.5v0.0999985
		c0,3.7000008-2.5,6.5-6.3000031,6.5h-3.6000061V50.5999985z M189.2006073,53.5999985h6.8000031
		c5.6999969,0,9.6999969-4.2000008,9.6999969-9.5999985v-0.0999985c0-5.4000015-4-9.5-9.6999969-9.5h-6.8000031V53.5999985z"/>
	<rect x="209.8005981" y="34.5" class="st5" width="3.1999969" height="19.2000008"/>
</g>
</svg>
